<svg width="254" height="83" viewBox="0 0 254 83" fill="none" xmlns="http://www.w3.org/2000/svg">
<path d="M105.605 52.4031H88.701C87.5379 52.4031 86.6237 52.0438 85.9582 51.319C85.2865 50.6004 84.9507 49.6587 84.9507 48.5065V23.4913C84.9507 22.339 85.2865 21.4098 85.9582 20.7035C86.6299 19.9973 87.5442 19.6504 88.701 19.6504H105.605V23.3302H89.8453C89.4846 23.3302 89.3043 23.5098 89.3043 23.8692V33.2917H102.726V36.9157H89.3043V48.2277C89.3043 48.587 89.4846 48.7667 89.8453 48.7667H105.605V52.4031ZM111.452 50.6066C110.755 49.5163 110.413 48.11 110.413 46.394V19.6628H114.418V46.5922C114.418 47.3666 114.549 48.0233 114.798 48.5622C115.053 49.1012 115.5 49.5225 116.141 49.826L114.773 52.8553C113.249 52.4527 112.142 51.7031 111.452 50.6066ZM129.363 27.8153C130.613 27.8153 131.745 28.0074 132.759 28.3977C133.773 28.7879 134.669 29.4818 135.446 30.4916V19.6628H139.501V40.2362C139.501 44.2382 138.724 47.3232 137.169 49.4729C135.614 51.6287 133.145 52.7005 129.768 52.7005C126.49 52.7005 124.027 51.6225 122.367 49.4729C120.712 47.3232 119.885 44.2382 119.885 40.2362C119.885 36.2343 120.694 33.1616 122.317 31.0243C123.94 28.8871 126.291 27.8153 129.363 27.8153ZM129.768 49.3738C131.117 49.3738 132.175 49.1136 132.94 48.5932C133.698 48.0728 134.264 47.379 134.637 46.5241C135.011 45.663 135.234 44.6904 135.322 43.5939C135.409 42.5036 135.446 41.3823 135.446 40.2362C135.446 39.1273 135.378 38.0246 135.241 36.9281C135.104 35.8378 134.836 34.859 134.432 34.0041C134.028 33.143 133.443 32.4554 132.685 31.935C131.926 31.4146 130.918 31.1544 129.668 31.1544C128.418 31.1544 127.417 31.4146 126.652 31.935C125.893 32.4554 125.308 33.143 124.904 34.0041C124.5 34.859 124.226 35.8378 124.096 36.9281C123.959 38.0246 123.89 39.1211 123.89 40.2362C123.89 41.3823 123.959 42.4974 124.096 43.5939C124.226 44.6904 124.506 45.663 124.929 46.5241C125.352 47.379 125.949 48.0728 126.726 48.5932C127.51 49.1136 128.518 49.3738 129.768 49.3738ZM216.858 27.8153C218.108 27.8153 219.24 28.0074 220.254 28.3977C221.267 28.7879 222.163 29.4818 222.94 30.4916V19.6628H226.995V40.2362C226.995 44.2382 226.218 47.3232 224.663 49.4729C223.108 51.6287 220.645 52.7005 217.262 52.7005C213.984 52.7005 211.522 51.6225 209.861 49.4729C208.207 47.3232 207.379 44.2382 207.379 40.2362C207.379 36.2343 208.188 33.1616 209.811 31.0243C211.434 28.8871 213.779 27.8153 216.858 27.8153ZM217.262 49.3738C218.612 49.3738 219.669 49.1136 220.428 48.5932C221.186 48.0728 221.752 47.379 222.126 46.5241C222.499 45.663 222.723 44.6904 222.81 43.5939C222.891 42.5036 222.934 41.3823 222.934 40.2362C222.934 39.1273 222.866 38.0246 222.729 36.9281C222.592 35.8378 222.325 34.859 221.92 34.0041C221.516 33.143 220.932 32.4554 220.173 31.935C219.414 31.4146 218.406 31.1544 217.156 31.1544C215.906 31.1544 214.899 31.4146 214.14 31.935C213.381 32.4554 212.797 33.143 212.392 34.0041C211.988 34.859 211.714 35.8378 211.584 36.9281C211.447 38.0246 211.379 39.1211 211.379 40.2362C211.379 41.3823 211.447 42.4974 211.584 43.5939C211.714 44.6904 211.994 45.663 212.417 46.5241C212.84 47.379 213.437 48.0728 214.215 48.5932C214.998 49.1136 216.012 49.3738 217.262 49.3738ZM154.247 52.7005C150.87 52.7005 148.339 51.6225 146.647 49.4729C144.955 47.3232 144.116 44.2382 144.116 40.2362C144.116 36.2343 144.962 33.1616 146.647 31.0243C148.339 28.8871 150.87 27.8215 154.247 27.8215C157.624 27.8215 160.149 28.8871 161.822 31.0243C163.495 33.1616 164.329 36.2343 164.329 40.2362C164.329 44.2382 163.495 47.3232 161.822 49.4729C160.156 51.6287 157.624 52.7005 154.247 52.7005ZM154.247 31.1482C152.12 31.1482 150.565 31.9226 149.583 33.4713C148.6 35.0201 148.115 37.275 148.115 40.2362C148.115 43.1974 148.606 45.4586 149.583 47.0259C150.559 48.5932 152.114 49.3738 154.247 49.3738C156.374 49.3738 157.923 48.5932 158.887 47.0259C159.851 45.4586 160.33 43.1974 160.33 40.2362C160.33 37.275 159.851 35.0201 158.887 33.4713C157.923 31.9226 156.374 31.1482 154.247 31.1482ZM181.718 32.1084C181.177 31.8049 180.63 31.5695 180.07 31.4022C179.51 31.235 179 31.1482 178.521 31.1482C176.867 31.1482 175.542 31.6934 174.541 32.7899C173.546 33.8864 173.048 35.4413 173.048 37.4609V52.4031H168.993V37.1078C168.993 34.3138 169.814 32.0651 171.45 30.3677C173.086 28.6702 175.443 27.8153 178.521 27.8153C179.23 27.8153 180.014 27.9392 180.879 28.1932C181.743 28.4472 182.508 28.757 183.186 29.1287L181.718 32.1084ZM192.509 52.6509C190.786 52.6509 189.331 52.4713 188.149 52.1181C186.967 51.765 186.01 51.2632 185.288 50.6066C184.56 49.9499 184.026 49.1693 183.69 48.2587C183.354 47.3542 183.18 46.3568 183.18 45.2789C183.18 44.201 183.348 43.216 183.69 42.3239C184.026 41.4318 184.56 40.6699 185.288 40.0256C186.016 39.3875 186.967 38.8919 188.149 38.5388C189.331 38.1857 190.786 38.006 192.509 38.006C193.218 38.006 193.946 38.0432 194.686 38.1052C195.426 38.1733 196.104 38.2414 196.713 38.3096C197.422 38.4087 198.113 38.514 198.79 38.6131V36.6989C198.79 33.0315 196.676 31.1978 192.459 31.1978C191.309 31.1978 190.27 31.3465 189.343 31.65C188.416 31.9536 187.39 32.5235 186.277 33.366L184.859 30.2376C185.767 29.5685 186.893 28.9924 188.23 28.5216C189.561 28.0507 190.991 27.8153 192.509 27.8153C195.855 27.8153 198.405 28.5463 200.159 30.0145C201.913 31.4766 202.796 33.6076 202.796 36.4015V43.47C202.796 45.3223 202.535 46.8338 202.012 48.0109C201.49 49.1879 200.768 50.1234 199.86 50.811C198.946 51.4986 197.858 51.9819 196.589 52.2482C195.32 52.5146 193.964 52.6509 192.509 52.6509ZM198.79 41.6487C198.486 41.5805 197.77 41.4876 196.639 41.3699C195.507 41.2522 194.132 41.1964 192.509 41.1964C190.581 41.1964 189.225 41.5434 188.429 42.231C187.633 42.9248 187.241 43.9222 187.241 45.2356C187.241 47.9923 188.995 49.3738 192.509 49.3738C194.742 49.3738 196.34 48.9215 197.323 48.0109C198.299 47.1064 198.79 45.6878 198.79 43.7735V41.6487ZM241.766 52.7005C238.389 52.7005 235.852 51.6225 234.166 49.4729C232.475 47.3232 231.635 44.2382 231.635 40.2362C231.635 36.2343 232.481 33.1616 234.166 31.0243C235.852 28.8871 238.389 27.8215 241.766 27.8215C245.144 27.8215 247.669 28.8871 249.342 31.0243C251.015 33.1616 251.848 36.2343 251.848 40.2362C251.848 44.2382 251.015 47.3232 249.342 49.4729C247.669 51.6287 245.144 52.7005 241.766 52.7005ZM241.766 31.1482C239.639 31.1482 238.085 31.9226 237.102 33.4713C236.125 35.0201 235.634 37.275 235.634 40.2362C235.634 43.1974 236.125 45.4586 237.102 47.0259C238.085 48.5932 239.633 49.3738 241.766 49.3738C243.893 49.3738 245.442 48.5932 246.4 47.0259C247.364 45.4586 247.843 43.1974 247.843 40.2362C247.843 37.275 247.364 35.0201 246.4 33.4713C245.442 31.9226 243.893 31.1482 241.766 31.1482ZM194.518 68.7516C195.463 69.1791 196.16 69.8109 196.614 70.6473C197.061 71.4898 197.292 72.4438 197.292 73.5217C197.292 75.3616 196.744 76.8298 195.656 77.9263C194.561 79.0228 192.783 79.5742 190.307 79.5742H185.649C184.927 79.5742 184.355 79.3574 183.926 78.9175C183.497 78.4839 183.286 77.9015 183.286 77.1891V61.6522C183.286 60.9336 183.497 60.3512 183.926 59.9052C184.355 59.4592 184.927 59.2299 185.649 59.2299H190.307C191.452 59.2299 192.428 59.36 193.224 59.614C194.02 59.8742 194.673 60.2397 195.183 60.7229C195.687 61.2061 196.06 61.7885 196.296 62.4699C196.533 63.1514 196.651 63.9195 196.651 64.7744C196.651 65.6479 196.471 66.4409 196.11 67.1471C195.743 67.8595 195.214 68.3923 194.518 68.7516ZM190.295 67.7108C191.644 67.7108 192.59 67.463 193.131 66.9736C193.672 66.4842 193.939 65.7532 193.939 64.7868C193.939 63.7771 193.678 62.9841 193.162 62.4018C192.646 61.8194 191.688 61.5283 190.295 61.5283H186.345C186.122 61.5283 186.01 61.6398 186.01 61.8628V67.7108H190.295ZM190.295 77.3254C191.103 77.3254 191.781 77.2387 192.322 77.059C192.863 76.8794 193.293 76.6192 193.622 76.2847C193.946 75.9501 194.188 75.5475 194.331 75.0766C194.474 74.6058 194.549 74.0916 194.549 73.5279C194.549 72.4314 194.238 71.5579 193.622 70.9198C193 70.2818 191.899 69.9596 190.295 69.9596H186.01V76.9847C186.01 77.2077 186.122 77.3192 186.345 77.3192L190.295 77.3254ZM208.822 66.732C208.48 66.54 208.132 66.3913 207.777 66.286C207.423 66.1807 207.1 66.1249 206.801 66.1249C205.75 66.1249 204.91 66.4718 204.282 67.1657C203.654 67.8595 203.337 68.8445 203.337 70.1207V79.5804H200.768V69.8977C200.768 68.1259 201.284 66.7073 202.323 65.6293C203.362 64.5514 204.854 64.0125 206.801 64.0125C207.249 64.0125 207.746 64.093 208.294 64.2541C208.841 64.4151 209.326 64.6072 209.755 64.8426L208.822 66.732ZM216.298 79.7414C215.21 79.7414 214.289 79.6299 213.537 79.4069C212.79 79.1839 212.181 78.8618 211.727 78.4467C211.267 78.0316 210.931 77.536 210.713 76.9599C210.502 76.3838 210.39 75.7581 210.39 75.0705C210.39 74.389 210.495 73.7633 210.713 73.1996C210.924 72.6358 211.26 72.1464 211.727 71.7438C212.187 71.3411 212.79 71.0251 213.537 70.8021C214.283 70.5791 215.203 70.4676 216.298 70.4676C216.746 70.4676 217.206 70.4862 217.679 70.5295C218.151 70.5729 218.581 70.6163 218.96 70.6596C219.408 70.7216 219.849 70.7897 220.272 70.8517V69.6375C220.272 67.3144 218.935 66.1559 216.261 66.1559C215.533 66.1559 214.874 66.255 214.289 66.4409C213.698 66.6329 213.052 66.9922 212.349 67.525L211.453 65.5426C212.032 65.1152 212.741 64.7558 213.586 64.4585C214.432 64.1611 215.334 64.0125 216.298 64.0125C218.413 64.0125 220.03 64.4771 221.143 65.4001C222.256 66.3294 222.81 67.6737 222.81 69.4454V73.9182C222.81 75.089 222.642 76.0492 222.312 76.7926C221.983 77.536 221.529 78.1308 220.95 78.5706C220.372 79.0042 219.681 79.3078 218.879 79.4813C218.077 79.6547 217.219 79.7414 216.298 79.7414ZM220.278 72.7721C220.086 72.7288 219.632 72.673 218.916 72.5987C218.201 72.5243 217.33 72.4872 216.304 72.4872C215.085 72.4872 214.221 72.704 213.723 73.1438C213.219 73.5837 212.971 74.2155 212.971 75.0457C212.971 76.7926 214.084 77.6661 216.31 77.6661C217.722 77.6661 218.736 77.3812 219.358 76.805C219.98 76.2289 220.291 75.3368 220.291 74.1226L220.278 72.7721ZM235.217 71.1738C235.802 71.3225 236.306 71.5517 236.723 71.8615C237.139 72.1712 237.469 72.5801 237.718 73.0943C237.96 73.6022 238.085 74.2527 238.085 75.0457C238.085 76.5139 237.512 77.6723 236.368 78.5148C235.224 79.3574 233.669 79.7786 231.697 79.7786C230.497 79.7786 229.415 79.6175 228.438 79.3016C227.462 78.9795 226.56 78.5025 225.727 77.8644L226.722 75.7519C228.134 77.0281 229.769 77.6723 231.629 77.6723C232.91 77.6723 233.893 77.4555 234.564 77.0157C235.236 76.5758 235.578 75.9254 235.578 75.0519C235.578 73.7943 234.788 73.1005 233.202 72.9766L230.795 72.7535C227.543 72.481 225.919 71.0809 225.919 68.5657C225.919 67.1595 226.442 66.0506 227.493 65.2391C228.538 64.4275 229.943 64.0248 231.697 64.0248C232.593 64.0248 233.488 64.1549 234.378 64.4089C235.261 64.6629 236.082 65.0036 236.834 65.4311L235.97 67.3825C235.286 66.9179 234.583 66.5834 233.868 66.3913C233.153 66.1993 232.431 66.1063 231.703 66.1063C230.659 66.1063 229.85 66.317 229.297 66.7444C228.737 67.1719 228.463 67.779 228.463 68.5657C228.463 69.2038 228.662 69.687 229.054 70.0216C229.452 70.3499 230.099 70.5605 230.994 70.6473L233.339 70.8703C233.998 70.9198 234.627 71.0251 235.217 71.1738ZM242.133 62.3398C241.704 62.3398 241.337 62.1849 241.026 61.8752C240.715 61.5654 240.56 61.2061 240.56 60.8035C240.56 60.376 240.715 60.0105 241.026 59.7008C241.337 59.391 241.692 59.2361 242.102 59.2361C242.531 59.2361 242.898 59.3848 243.209 59.6822C243.52 59.9795 243.676 60.345 243.676 60.7725C243.676 61.1999 243.527 61.5654 243.228 61.8752C242.923 62.1849 242.563 62.3398 242.133 62.3398ZM243.576 79.9025C242.612 79.6237 241.916 79.1405 241.493 78.4467C241.064 77.7529 240.852 76.867 240.852 75.7767V64.1735H243.39V75.9068C243.39 76.3962 243.471 76.8112 243.632 77.152C243.794 77.4927 244.086 77.7591 244.515 77.9511L243.576 79.9025ZM248.825 78.4467C248.39 77.7529 248.166 76.867 248.166 75.7767V59.2423H250.704V75.9068C250.704 76.3962 250.785 76.8112 250.946 77.152C251.108 77.4927 251.388 77.7591 251.798 77.9511L250.934 79.8653C249.964 79.6113 249.261 79.1405 248.825 78.4467Z" fill="black"/>
<path d="M57.8963 9.86854C61.2859 13.9572 62.2312 21.8744 58.6986 27.3445C58.5867 27.518 58.3565 27.5056 58.4436 27.233C60.4587 20.9823 59.6004 12.9227 53.5614 7.31002C48.5299 2.62044 39.6548 2.04431 39.6548 2.04431C39.6548 2.04431 45.8058 3.64261 49.724 8.92691C53.3997 13.8767 54.9172 21.9549 50.6321 28.8375C43.5419 40.2114 30.873 38.1795 30.873 38.1795C30.873 38.1795 37.7766 42.7142 48.9404 40.7752C60.0482 38.8423 64.8558 30.157 65.1232 24.2099C65.4964 15.8219 60.3778 11.8447 57.8963 9.86854Z" fill="url(#paint0_linear_37_1320)"/>
<path d="M37.2604 17.9034C41.8876 16.4847 45.7747 16.144 51.0363 17.7857C51.0363 17.7857 50.6943 13.759 48.2376 10.5438C48.2376 10.5438 45.7187 9.75082 42.777 9.56497C30.6305 8.78441 23.8203 14.2112 20.3063 18.337C17.2588 21.9053 15.5298 25.3745 15.4676 25.517C15.2872 25.9011 15.1069 25.7586 15.2002 25.3869C18.3845 12.7492 31.5261 5.37099 46.4278 8.33837C45.5135 7.04982 42.4411 4.94973 38.8028 3.89039C36.5451 3.23373 34.4554 2.94257 32.4777 2.91159H32.3719C31.4639 2.9054 30.5745 2.94876 29.71 3.04169C14.9016 4.42316 2.43176 18.0149 2.43176 33.0686C2.43176 52.2978 17.1282 59.6512 31.0907 60.5494C33.8459 60.7291 36.1222 60.7539 39.9782 60.1963C34.1009 59.7751 19.4356 49.826 23.6212 32.5421C25.2756 25.6595 31.7313 19.5946 37.2604 17.9034Z" fill="url(#paint1_linear_37_1320)"/>
<path d="M3.8747 48.8349C3.40203 47.6516 3.20923 46.9392 3.20923 46.9392C3.20923 46.9392 3.5513 47.633 4.28518 48.7295C6.81026 52.4837 13.6018 60.915 28.0992 62.3523C40.1586 63.5479 49.9044 61.3425 59.6129 54.3917C62.0136 52.6695 63.2202 52.2793 64.0349 52.9545C64.7377 53.5368 64.719 55.0732 63.3881 56.814C61.939 58.6972 57.8466 64.124 49.3944 67.7171C42.7024 70.5544 35.9046 71.0376 29.4364 69.8358C12.5072 66.6701 5.82759 53.7351 3.8747 48.8349Z" fill="url(#paint2_linear_37_1320)"/>
<defs>
<linearGradient id="paint0_linear_37_1320" x1="48.0078" y1="-2.816" x2="48.0078" y2="38.2064" gradientUnits="userSpaceOnUse">
<stop stop-color="#D8C923"/>
<stop offset="0.071" stop-color="#D8C923"/>
<stop offset="0.439" stop-color="#519D5D"/>
<stop offset="0.761" stop-color="#008F5E"/>
<stop offset="0.922" stop-color="#007853"/>
<stop offset="1" stop-color="#007250"/>
</linearGradient>
<linearGradient id="paint1_linear_37_1320" x1="17.1504" y1="59.8711" x2="31.5682" y2="5.85183" gradientUnits="userSpaceOnUse">
<stop stop-color="#D8CE27"/>
<stop offset="0.129" stop-color="#B4BB38"/>
<stop offset="0.49" stop-color="#519D5D"/>
<stop offset="0.8" stop-color="#008F5E"/>
<stop offset="1" stop-color="#007250"/>
</linearGradient>
<linearGradient id="paint2_linear_37_1320" x1="-2.66144" y1="58.6952" x2="59.6662" y2="58.6952" gradientUnits="userSpaceOnUse">
<stop stop-color="#D8C923"/>
<stop offset="0.059" stop-color="#D8C923"/>
<stop offset="0.502" stop-color="#519D5D"/>
<stop offset="0.831" stop-color="#008F5E"/>
<stop offset="1" stop-color="#007250"/>
</linearGradient>
</defs>
</svg>
