<svg width="581" height="634" viewBox="0 0 581 634" fill="none" xmlns="http://www.w3.org/2000/svg">
<path d="M513.468 72.4029C544.847 110.238 553.599 183.501 520.896 234.12C519.859 235.725 517.729 235.61 518.535 233.088C537.19 175.246 529.244 100.665 473.337 48.7272C426.758 5.33133 344.596 0 344.596 0C344.596 0 401.539 14.7901 437.812 63.6893C471.84 109.493 485.889 184.246 446.219 247.935C380.581 353.186 263.298 334.383 263.298 334.383C263.298 334.383 327.208 376.346 430.558 358.403C533.39 340.517 577.896 260.146 580.372 205.113C583.827 127.493 536.441 90.6899 513.468 72.4029Z" fill="url(#paint0_linear_37_1325)"/>
<path d="M322.429 146.754C365.266 133.627 401.252 130.474 449.961 145.665C449.961 145.665 446.795 108.403 424.052 78.6509C424.052 78.6509 400.733 71.3132 373.5 69.5934C261.053 62.3703 198.006 112.588 165.475 150.767C137.263 183.787 121.256 215.89 120.681 217.208C119.011 220.762 117.341 219.444 118.205 216.004C147.684 99.059 269.344 30.7836 407.297 58.2428C398.833 46.319 370.391 26.8854 336.708 17.0827C315.808 11.0061 296.462 8.31178 278.153 8.02515H277.174C268.768 7.96782 260.534 8.36911 252.531 9.229C115.441 22.0127 0 147.786 0 287.089C0 465.029 136.054 533.075 265.313 541.387C290.82 543.05 311.893 543.279 347.59 538.12C293.18 534.221 157.415 442.156 196.164 282.216C211.479 218.527 271.244 162.404 322.429 146.754Z" fill="url(#paint1_linear_37_1325)"/>
<path d="M13.357 432.984C8.98117 422.034 7.19629 415.442 7.19629 415.442C7.19629 415.442 10.363 421.862 17.1571 432.009C40.5332 466.749 103.407 544.769 237.618 558.069C349.259 569.133 439.482 548.725 529.359 484.405C551.583 468.468 562.753 464.857 570.296 471.105C576.802 476.494 576.629 490.711 564.308 506.82C550.893 524.247 513.007 574.464 434.76 607.713C372.808 633.969 309.877 638.44 249.997 627.319C93.2734 598.025 31.4361 478.328 13.357 432.984Z" fill="url(#paint2_linear_37_1325)"/>
<defs>
<linearGradient id="paint0_linear_37_1325" x1="421.924" y1="-44.9758" x2="421.924" y2="334.632" gradientUnits="userSpaceOnUse">
<stop stop-color="#D8C923"/>
<stop offset="0.071" stop-color="#D8C923"/>
<stop offset="0.439" stop-color="#519D5D"/>
<stop offset="0.761" stop-color="#008F5E"/>
<stop offset="0.922" stop-color="#007853"/>
<stop offset="1" stop-color="#007250"/>
</linearGradient>
<linearGradient id="paint1_linear_37_1325" x1="136.259" y1="535.11" x2="269.628" y2="35.205" gradientUnits="userSpaceOnUse">
<stop stop-color="#D8CE27"/>
<stop offset="0.129" stop-color="#B4BB38"/>
<stop offset="0.49" stop-color="#519D5D"/>
<stop offset="0.8" stop-color="#008F5E"/>
<stop offset="1" stop-color="#007250"/>
</linearGradient>
<linearGradient id="paint2_linear_37_1325" x1="-47.152" y1="524.228" x2="529.852" y2="524.228" gradientUnits="userSpaceOnUse">
<stop stop-color="#D8C923"/>
<stop offset="0.059" stop-color="#D8C923"/>
<stop offset="0.502" stop-color="#519D5D"/>
<stop offset="0.831" stop-color="#008F5E"/>
<stop offset="1" stop-color="#007250"/>
</linearGradient>
</defs>
</svg>
